<svg width="85" height="75" viewBox="0 0 85 75" fill="none" xmlns="http://www.w3.org/2000/svg">
<path d="M74.867 0H23.3959V10L31.8653 16.0417C32.4268 16.4167 32.7543 17.0417 32.7543 17.6667V35.4167C32.7543 36.5833 31.7249 37.5 30.4147 37.5H11.698C10.3878 37.5 9.35837 36.5833 9.35837 35.4167V17.6667C9.35837 17.0417 9.68591 16.4167 10.2474 16.0417L18.7167 10V0H0V41.6667C0 50.875 8.37574 58.3333 18.7167 58.3333H46.7919C57.1329 58.3333 65.5086 50.875 65.5086 41.6667V29.1667H74.867C80.0609 29.1667 84.2253 25.4167 84.2253 20.8333V8.33333C84.2253 3.70833 80.0609 0 74.867 0ZM74.867 20.8333H65.5086V8.33333H74.867V20.8333Z" fill="#F29D38"/>
<path d="M74.867 66.6665H0V74.9998H74.867V66.6665Z" fill="#F29D38"/>
</svg>
