<svg width="459" height="414" viewBox="0 0 459 414" fill="none" xmlns="http://www.w3.org/2000/svg">
<g clip-path="url(#clip0_640_3)">
<path d="M120.188 318.406C125.099 334.073 127.995 347.177 129.057 363.63L136.641 343.276C141.047 348.068 146.792 351.474 151.589 355.932C156.328 360.396 160.286 366.641 159.281 373.109L163.969 357.162C164.188 356.432 164.578 355.766 165.135 355.208C167.089 353.479 169.432 355.094 171.719 355.432C175.063 355.875 178.354 352.641 178.021 349.297C184.714 351.865 190.734 356.214 195.307 361.734C196.479 357.495 195.141 352.589 191.849 349.63C190.344 348.24 188.391 347.12 187.667 345.172C186.943 343.219 189.063 340.542 190.734 341.656C185.214 337.25 179.693 332.849 174.172 328.443C180.583 327.719 186.943 326.99 193.354 326.266C200.271 325.484 208.245 324.037 211.594 317.958C205.568 318.016 199.547 315.781 195.031 311.823C200.438 308.703 206.849 307.365 213.099 308.089C212.036 305.802 210.365 303.792 208.245 302.401C210.031 298.609 214.271 296.099 218.453 296.266C213.542 294.703 208.635 293.089 203.729 291.526C200.771 290.578 197.318 288.906 197.26 285.839C197.203 283.271 199.714 280.484 198.151 278.422C187.609 279.87 177.406 283.385 168.203 288.792C166.979 286.844 168.094 284.333 169.266 282.438C174.896 273.177 182.536 265.094 191.406 258.901C187.391 258.177 183.208 256.62 180.75 253.328C178.297 250.037 178.354 244.682 181.755 242.396C176.234 242.453 171.214 245.63 165.75 246.469C160.286 247.307 153.26 243.958 153.927 238.495C148.521 248.589 142.328 258.292 135.469 267.438C131.677 260.63 127.771 252.938 129.948 245.406C131.344 240.5 135.193 236.375 135.526 231.302C131.677 232.807 127.661 229.349 125.599 225.781C123.589 222.156 122.25 217.859 118.797 215.573C116.901 221.875 114.781 228.568 109.76 232.859C104.74 237.156 95.8177 237.49 92.3594 231.859L95.7604 269.833C91.5781 269.891 88.0677 266.88 84.6094 264.479C78.7552 260.354 72.0625 257.396 65.0885 255.839C69.3854 262.583 73.7917 269.667 74.5156 277.641C75.2396 285.615 70.9479 294.646 63.1406 296.432C71.7292 295.875 80.5365 298.662 87.2292 304.13C88.3438 305.021 89.4583 306.193 89.349 307.583C89.2917 308.313 88.901 308.922 88.4583 309.479C83.1615 316.12 70.8906 310.818 64.7552 316.729C83.1615 322.026 99.8906 322.974 118.234 317.958C119.073 317.734 119.745 317.901 120.188 318.406Z" fill="#CA4B45"/>
<mask id="mask0_640_3" style="mask-type:luminance" maskUnits="userSpaceOnUse" x="68" y="255" width="102" height="148">
<path d="M68.3335 255.333H169.667V402.974H68.3335V255.333Z" fill="white"/>
</mask>
<g mask="url(#mask0_640_3)">
<path d="M167.646 256.505C163.297 267.38 156.719 277.083 150.026 286.672C146.625 291.526 143.219 296.432 139.427 300.948C135.693 305.469 131.344 309.37 127.047 313.271C118.797 320.859 112.495 329.667 106.302 338.927C99.6094 348.964 93.0834 359.167 86.7865 369.484C83.3803 375.115 79.9792 380.75 76.6928 386.438C74.0157 391.12 69.5521 396.583 69.6094 402.219C69.6094 402.719 70.4428 402.719 70.3907 402.219C70.3334 399.094 71.8959 396.474 73.4011 393.797C74.9636 391.011 76.5782 388.219 78.198 385.49C81.1511 380.412 84.1615 375.396 87.1771 370.375C93.3646 360.172 99.7761 350.136 106.359 340.208C112.828 330.505 119.354 321.359 127.995 313.443C132.177 309.594 136.307 305.802 139.984 301.453C143.391 297.38 146.51 293.031 149.521 288.682C156.662 278.531 163.797 268.271 168.37 256.672C168.594 256.229 167.813 256.005 167.646 256.505Z" fill="#803D2E"/>
</g>
<path d="M156.328 256.057C154.375 263.198 153.985 270.557 155.209 277.865C155.266 278.365 156.047 278.141 155.99 277.641C154.823 270.448 155.209 263.255 157.11 256.281C157.219 255.781 156.438 255.557 156.328 256.057Z" fill="#803D2E"/>
<path d="M198.484 297.714C177.74 304.464 155.771 311.432 133.854 305.969C133.349 305.859 133.125 306.635 133.63 306.75C155.656 312.214 177.797 305.297 198.656 298.495C199.214 298.328 198.99 297.547 198.484 297.714Z" fill="#803D2E"/>
<path d="M184.042 288.682C175.786 293.813 168.26 299.948 161.625 307.026C161.292 307.417 161.849 307.974 162.182 307.583C168.76 300.557 176.234 294.427 184.432 289.349C184.88 289.073 184.49 288.401 184.042 288.682Z" fill="#803D2E"/>
<path d="M191.625 317.344C186.271 316.339 181.141 314.109 176.959 310.651C175.959 309.818 172.167 304.573 170.771 306.859C170.49 307.307 171.214 307.698 171.438 307.25C171.776 306.693 175.735 310.708 176.349 311.208C177.74 312.323 179.193 313.385 180.698 314.276C183.985 316.172 187.61 317.453 191.349 318.182C191.906 318.182 192.13 317.401 191.625 317.344Z" fill="#803D2E"/>
<path d="M174.786 341.156C166.141 338.646 157.943 334.911 150.526 329.833C143.109 324.818 134.63 318.234 131.677 309.427C131.568 309.036 130.838 309.036 130.896 309.536C130.953 309.984 131.005 310.427 131.062 310.875C131.12 311.375 131.958 311.375 131.844 310.875C131.786 310.427 131.734 309.984 131.677 309.536C131.396 309.594 131.177 309.594 130.896 309.651C133.797 318.125 141.49 324.427 148.573 329.443C156.495 335.078 165.307 339.203 174.562 341.937C175.12 342.047 175.286 341.323 174.786 341.156Z" fill="#803D2E"/>
<path d="M143.443 326.208C143.558 325.432 143.61 324.651 143.724 323.87C143.776 323.365 143.11 323.365 142.943 323.755C140.714 329.109 140.933 334.964 143.558 340.151C143.776 340.599 144.505 340.208 144.224 339.76C141.662 334.745 141.49 329.167 143.667 323.979C143.391 323.922 143.167 323.922 142.886 323.87C142.776 324.651 142.719 325.432 142.61 326.208C142.552 326.714 143.391 326.714 143.443 326.208Z" fill="#803D2E"/>
<path d="M152.922 329.891C157.328 327.214 162.125 326.099 167.255 326.547C167.761 326.599 167.761 325.766 167.255 325.766C162.016 325.318 156.995 326.49 152.537 329.224C152.089 329.5 152.479 330.172 152.922 329.891Z" fill="#803D2E"/>
<path d="M117.344 245.188C115.224 266.151 127.828 285.167 137.479 302.734C137.698 303.182 138.427 302.792 138.146 302.344C128.552 284.891 116.005 265.984 118.125 245.188C118.24 244.63 117.401 244.63 117.344 245.188Z" fill="#803D2E"/>
<path d="M138.703 274.016C138.761 274.016 138.818 274.073 138.927 274.073C139.094 274.125 139.318 274.073 139.375 273.906C139.985 272.453 138.427 272.401 137.865 273.568C137.422 274.464 137.589 275.802 137.365 276.802C137.089 278.141 136.75 279.479 136.307 280.766C135.193 284.052 133.464 287.063 131.344 289.74C131.005 290.13 131.568 290.688 131.901 290.297C133.682 288.068 135.136 285.724 136.25 283.104C136.583 282.323 139.375 273.349 138.927 273.177C138.427 273.125 138.203 273.906 138.703 274.016Z" fill="#803D2E"/>
<path d="M106.469 261.469C110.766 268.161 116.677 273.458 123.813 276.969C124.261 277.193 124.709 276.526 124.203 276.302C117.235 272.844 111.38 267.656 107.141 261.135C106.86 260.63 106.193 261.021 106.469 261.469Z" fill="#803D2E"/>
<path d="M87.7341 280.875C94.8696 285.615 101.896 290.635 108.703 295.932C111.989 298.495 115.224 301.062 118.406 303.74C119.63 304.797 128.552 311.323 126.995 312.937C126.656 313.328 127.213 313.885 127.552 313.495C129.5 311.49 125.765 308.979 124.484 307.865C120.578 304.464 116.62 301.115 112.547 297.88C104.687 291.635 96.5414 285.724 88.1768 280.151C87.6768 279.927 87.2862 280.594 87.7341 280.875Z" fill="#803D2E"/>
<path d="M111.323 283.385C114.781 288.792 115.953 295.094 114.724 301.339C114.615 301.844 115.391 302.062 115.505 301.562C116.787 295.094 115.615 288.568 112.047 282.937C111.714 282.547 111.042 282.937 111.323 283.385Z" fill="#803D2E"/>
<path d="M85.6665 292.307C92.1352 293.365 98.6613 293.755 105.187 293.422C105.687 293.422 105.687 292.583 105.187 292.641C98.7186 292.974 92.2498 292.583 85.8905 291.526C85.3905 291.469 85.1665 292.25 85.6665 292.307Z" fill="#803D2E"/>
<path d="M343.26 251.042C353.406 254.386 364.115 256.229 374.766 256.339C378.557 256.396 383.245 255.557 384.302 251.932C384.693 250.594 384.469 249.089 384.859 247.75C386.146 243.734 391.609 243.682 395.682 242.563C400.646 241.172 404.49 237.214 407.448 232.974C412.078 226.281 415.089 218.641 418.042 211.057C419.604 207.099 421.167 203.198 422.672 199.234C414.641 200.688 406.609 202.193 398.578 203.641C396.906 198.844 403.042 195.276 405.552 190.87C409.063 184.682 405.219 176.594 407.615 169.906C408.505 167.396 410.292 165.219 411.24 162.708C412.188 160.203 412.078 156.854 409.844 155.349C406.943 155.24 404.099 155.125 401.203 155.016C402.76 151.224 404.38 147.266 403.99 143.135C403.88 141.688 403.49 140.24 403.099 138.844C401.37 132.484 399.641 126.188 397.911 119.828C397.354 117.766 396.74 115.646 395.401 113.974C394.172 112.469 392.391 111.406 391.219 109.849C387.703 105.052 390.995 97.1303 386.703 93.0626C386.146 99.3074 382.073 104.719 377.333 108.787C372.594 112.859 367.073 115.927 362.109 119.771C360.771 120.833 359.432 122.005 358.427 123.396C357.37 124.958 356.698 126.745 355.917 128.474C354.745 131.037 353.24 133.38 351.792 135.776C344.818 147.151 339.578 159.589 336.177 172.469C333.385 163.662 330.542 154.792 327.755 145.979C326.75 142.859 325.693 139.625 323.573 137.057C319.109 131.76 310.302 129.865 308.797 123.12C307.677 124.625 305.224 123.844 303.943 122.448C302.714 121.057 301.88 119.214 300.208 118.38C298.922 117.708 297.365 117.875 295.911 117.542C294.349 117.208 292.958 116.427 291.563 115.646C286.766 113.026 281.693 110.849 276.505 109.177C273.547 108.229 270.594 107.448 267.641 106.391C258.38 103.156 250.016 97.5209 243.438 90.2761C244.661 95.9063 245.891 101.484 247.172 107.115C248.063 111.13 247.115 117.208 243.099 116.594C242.875 119.604 243.604 122.729 245.219 125.292C244.271 123.12 242.266 121.391 239.979 120.719C241.76 125.74 240.198 131.26 240.313 136.557C240.422 141.854 243.49 148.156 248.786 148.099C246.281 147.208 243.604 149.662 243.266 152.281C242.932 154.906 244.161 157.469 245.333 159.813C249.401 167.787 253.641 175.646 258.047 183.453C260.443 187.693 262.953 191.984 266.521 195.333C274.443 202.807 286.432 204.813 294.016 212.62C285.427 213.287 277.563 208.328 269.479 205.37C255.984 200.464 240.479 201.13 227.427 207.208C218.005 211.615 207.63 218.807 198.266 214.234C204.062 219.422 209.974 224.776 213.708 231.636C215.828 235.484 217.167 239.776 219.568 243.458C221.964 247.136 225.87 250.261 230.276 250.151C227.432 250.818 227.375 255.281 229.547 257.287C231.667 259.292 234.792 259.74 237.578 260.63C241.708 262.026 245.333 264.703 247.839 268.271C256.542 265.037 266.578 265.37 275 269.276C266.245 277.141 261.339 289.182 262.172 300.948C266.302 296.99 273.438 296.88 277.734 300.672C278.849 301.677 279.906 302.958 281.359 303.349C282.583 303.625 283.865 303.182 285.094 302.734C287.49 301.844 289.891 300.948 292.286 300.057C294.297 299.333 296.417 298.552 298.479 299.052C299.87 299.391 301.099 300.281 302.495 300.281C303.609 300.281 304.667 299.776 305.672 299.219C323.63 289.24 337.234 271.839 342.589 252.047L343.26 251.042Z" fill="#EBAB4C"/>
<path d="M341.026 250.484C350.62 285.448 371.87 317.01 400.422 339.26C408.396 345.448 416.927 350.969 425.906 355.656C427.635 356.547 429.141 353.927 427.411 352.979C395.849 336.583 370.083 309.76 354.526 277.807C350.12 268.776 346.604 259.349 343.984 249.703C343.479 247.807 340.526 248.589 341.026 250.484Z" fill="#BF7257"/>
<path d="M343.927 251.542C336.453 231.693 327.307 212.453 318.219 193.323C313.755 183.901 309.016 174.646 302.714 166.281C296.75 158.417 289.891 151.281 283.255 144.031C275.667 135.719 268.365 127.078 263.234 116.984C262.62 115.812 260.891 116.875 261.448 117.99C270.37 135.609 285.651 148.547 297.974 163.604C304.609 171.745 309.745 180.667 314.318 190.036C319 199.682 323.516 209.385 327.979 219.088C332.943 229.906 337.682 240.838 341.865 251.99C342.422 253.328 344.375 252.771 343.927 251.542Z" fill="#BF7257"/>
<path d="M256.875 141.073C267.078 148.995 278.734 157.635 292.344 156.911C293.625 156.854 293.625 154.792 292.344 154.849C279.292 155.573 268.083 147.208 258.323 139.625C257.266 138.786 255.818 140.24 256.875 141.073Z" fill="#BF7257"/>
<path d="M268.589 171.464C280.854 179.885 296.026 184.349 310.859 183.958C312.198 183.901 312.198 181.896 310.859 181.896C296.302 182.287 281.578 177.88 269.537 169.682C268.531 168.901 267.526 170.688 268.589 171.464Z" fill="#BF7257"/>
<path d="M306.563 131.76C308.682 138.51 310.802 145.422 311.417 152.562C311.693 156.021 311.584 159.479 310.86 162.88C310.021 166.839 308.182 170.406 306.229 173.922C305.563 175.036 307.344 176.036 308.016 174.922C310.021 171.354 311.917 167.729 312.807 163.661C313.589 160.203 313.755 156.63 313.479 153.12C312.979 145.646 310.802 138.396 308.573 131.318C308.125 129.979 306.172 130.536 306.563 131.76Z" fill="#BF7257"/>
<path d="M382.073 120.385C380.844 129.255 379.787 138.177 378.448 147.042C377.276 154.849 375.771 162.714 372.703 170.073C369.412 178.047 364.005 184.458 358.37 190.87C352.964 196.948 348.109 203.365 344.261 210.615C340.136 218.417 337.234 226.781 335.62 235.427C335.396 236.708 337.349 237.214 337.573 235.927C340.583 219.813 348.167 205.484 358.927 193.214C364.448 186.969 370.026 180.776 373.542 173.141C376.828 166 378.557 158.359 379.844 150.667C381.458 140.797 382.63 130.87 383.969 121C384.25 119.604 382.297 119.047 382.073 120.385Z" fill="#BF7257"/>
<path d="M365.786 127.526C365.734 139.234 368.802 150.776 374.542 160.927C375.213 162.042 376.943 161.036 376.328 159.922C370.698 150.052 367.797 138.901 367.854 127.526C367.854 126.187 365.786 126.187 365.786 127.526Z" fill="#BF7257"/>
<path d="M401.984 162.266C393.448 171.245 381.625 176.708 369.245 177.375C367.963 177.432 367.963 179.495 369.245 179.443C382.182 178.771 394.51 173.083 403.432 163.714C404.323 162.714 402.875 161.318 401.984 162.266Z" fill="#BF7257"/>
<path d="M349.781 159.255C346.38 171.521 347.666 184.792 353.297 196.172C353.854 197.339 355.64 196.339 355.083 195.167C349.672 184.234 348.5 171.521 351.734 159.755C352.125 158.531 350.172 157.969 349.781 159.255Z" fill="#BF7257"/>
<path d="M410.068 207.599C399.75 213.901 389.489 221.708 376.885 222.042C371.87 222.156 366.734 221.094 362.5 218.365C357.422 215.073 354.245 209.667 351.234 204.536C350.562 203.417 348.833 204.422 349.448 205.536C351.901 209.719 354.411 213.958 357.979 217.302C361.047 220.203 364.786 222.214 368.854 223.214C377.89 225.448 387.203 222.937 395.344 218.865C400.864 216.078 405.885 212.562 411.13 209.328C412.187 208.661 411.182 206.875 410.068 207.599Z" fill="#BF7257"/>
<path d="M383.354 204.536C375.713 207.266 369.302 212.51 365.062 219.479C364.396 220.594 366.177 221.599 366.849 220.484C370.75 214.016 376.776 209.104 383.859 206.542C385.083 206.094 384.583 204.089 383.354 204.536Z" fill="#BF7257"/>
<path d="M240.031 226.224C243.938 231.469 250.297 233.922 256.094 236.542C262.005 239.161 268.026 241.615 274.328 243.068C287.156 245.969 299.703 243.177 311.469 237.713C318.219 234.588 324.63 230.745 331.047 226.838C332.161 226.172 331.156 224.385 330.042 225.057C319.5 231.469 308.573 238.047 296.411 240.891C290.391 242.286 284.089 242.677 277.953 241.615C271.766 240.615 265.797 238.437 260 235.984C256.818 234.646 253.698 233.198 250.63 231.693C247.339 230.073 244.047 228.177 241.818 225.109C240.979 224.161 239.25 225.167 240.031 226.224Z" fill="#BF7257"/>
<path d="M265.912 217.359C270.875 220.651 275.615 224.276 280.073 228.177C282.25 230.073 284.422 232.083 286.49 234.146C288.662 236.318 290.839 238.552 291.396 241.672C291.62 242.953 293.568 242.453 293.349 241.172C292.792 238.104 290.891 235.76 288.776 233.589C286.599 231.354 284.313 229.24 281.969 227.172C277.229 222.99 272.156 219.146 266.912 215.573C265.797 214.849 264.792 216.635 265.912 217.359Z" fill="#BF7257"/>
<path d="M253.026 255.781C261 253.604 268.14 249.203 273.547 243.01C274.385 242.005 272.937 240.615 272.099 241.615C266.859 247.526 260.109 251.766 252.469 253.828C251.245 254.109 251.802 256.115 253.026 255.781Z" fill="#BF7257"/>
<path d="M282.359 289.464C292.792 286.453 301.823 279.427 307.344 270.115C313.313 260.021 313.979 248.198 313.589 236.766C313.537 235.427 311.526 235.427 311.526 236.766C311.859 247.641 311.359 258.958 305.839 268.661C300.599 277.75 291.896 284.609 281.859 287.51C280.578 287.844 281.078 289.854 282.359 289.464Z" fill="#BF7257"/>
<path d="M289.609 264.036C295.745 260.188 302.995 258.568 310.187 259.63C311.469 259.797 312.031 257.844 310.693 257.677C302.995 256.62 295.187 258.177 288.552 262.307C287.489 262.974 288.495 264.76 289.609 264.036Z" fill="#BF7257"/>
<mask id="mask1_640_3" style="mask-type:luminance" maskUnits="userSpaceOnUse" x="24" y="4" width="203" height="188">
<path d="M24.3335 4.97388H227V191.333H24.3335V4.97388Z" fill="white"/>
</mask>
<g mask="url(#mask1_640_3)">
<path d="M77.1927 139.068C73.7917 151.781 77.5833 158.917 85.724 169.682C85.5573 165.667 85.7813 161.484 87.5104 157.802C89.2396 154.177 92.8646 151.167 96.8802 151.224C101.729 151.281 105.354 155.349 109.146 158.359C119.188 166.448 132.958 168.453 143.557 175.76C150.302 180.391 155.714 187.078 163.24 190.313C156.661 177.599 150.078 164.943 143.5 152.229C141.271 147.99 140.042 141.073 145.005 140.016C145.786 139.849 146.568 139.901 147.349 140.016C162.797 143.25 178.188 150.891 193.745 147.88L181.922 138.12C181.698 137.896 181.422 137.729 181.255 137.505C176.292 132.432 183.036 127.078 188.505 127.245C193.245 127.411 197.927 129.641 202.557 128.693C199.938 127.354 201.891 122.839 204.786 122.281C207.688 121.724 210.589 123.344 213.432 124.01C217.724 125.073 222.469 124.068 225.979 121.391C215.552 117.375 205.125 113.302 194.693 109.292C191.797 108.172 188.781 106.948 186.719 104.661C184.656 102.375 183.932 98.526 185.885 96.1302C175.453 99.5313 163.911 99.5313 153.484 96.1302C152.646 93.6771 155.49 91.5573 157.885 90.6094C166.031 87.3177 174.62 85.3125 183.151 83.3021C189.786 81.7396 196.479 80.1823 203.115 78.6198C197.094 77.4479 190.734 76.1094 186.219 71.9844C181.698 67.8542 179.974 59.9375 184.375 55.6979C186.328 53.8021 189.286 52.6875 190.12 50.0677C190.625 48.4531 190.12 46.6667 189.677 44.9948C187.443 35.7917 189.51 25.6458 195.141 18.0573C192.073 20.401 188.839 22.7969 185.156 23.8021C181.422 24.8073 176.958 24.1927 174.453 21.2396C171.047 26.7604 164.693 30.3281 158.224 30.4375C151.755 30.5521 145.286 27.2031 141.714 21.7969C134.854 36.7396 126.099 50.7917 115.781 63.6198C114.724 64.9583 112.828 65.5156 111.266 64.7917C109.427 64.0104 109.427 62.1667 109.536 60.6094C109.984 53.4115 111.323 46.276 113.385 39.3594L109.37 40.8125C104.24 29.8281 102.62 17.1667 104.797 5.23438C100.115 12.9271 92.25 18.5625 83.4375 20.625C80.4844 24.6979 79.8125 29.9375 77.6927 34.5104C75.5729 39.0833 70.7813 43.3229 65.9844 41.8125C61.5781 40.4219 58.6198 34.6198 54.0469 35.5677C60.7969 46.6094 62.1927 60.7188 57.8385 72.875C57.2292 74.6042 56.224 76.5573 54.3854 76.9479C53.4375 77.1667 52.4323 76.8906 51.5417 76.6094C42.8958 74.0469 34.25 71.4792 25.6094 68.9167C28.8958 73.6563 32.2448 78.5052 33.4167 84.1406C34.5833 89.7708 33.0781 96.3542 28.2865 99.5313C33.75 103.823 40.4948 106.167 46.1302 110.24C51.7604 114.307 56.3906 121.276 54.3281 127.917C62.3594 127.859 70.3333 131.036 76.1302 136.557C76.4688 136.891 76.6927 137.281 76.8594 137.672V137.729C77.3021 137.953 77.3021 138.568 77.1927 139.068Z" fill="#E78F54"/>
</g>
<mask id="mask2_640_3" style="mask-type:luminance" maskUnits="userSpaceOnUse" x="5" y="46" width="168" height="214">
<path d="M5.14062 46H172.333V259.333H5.14062V46Z" fill="white"/>
</mask>
<g mask="url(#mask2_640_3)">
<path d="M171.104 47.224C149.354 77.0574 118.797 98.4167 90.9688 122.115C77.5261 133.604 64.6459 145.76 53.4897 159.479C42.5626 172.859 33.1355 187.469 25.2709 202.859C16.3491 220.427 9.65635 238.995 5.30739 258.177C5.14072 259.016 6.42197 259.182 6.64593 258.401C14.4532 224.162 29.9011 191.708 51.5418 164.047C73.9011 135.5 103.182 114.422 130.563 91.0522C145.787 78.0626 160.287 64.2345 172.109 48.0053C172.609 47.3334 171.604 46.5001 171.104 47.224Z" fill="#A32C0A"/>
</g>
<path d="M144.896 36.6824C137.198 52.9689 129.672 71.2605 130.62 89.6043C130.672 90.4428 131.958 90.3282 131.958 89.4376C131.005 71.3126 138.536 53.2449 146.12 37.1876C146.51 36.4637 145.286 35.9064 144.896 36.6824Z" fill="#A32C0A"/>
<path d="M178.412 70.5312C169.656 73.7656 160.229 74.2708 151.141 72.0937C150.302 71.8698 150.136 73.2083 150.917 73.4323C160.229 75.6614 169.932 75.0521 178.854 71.7604C179.636 71.4791 179.193 70.2552 178.412 70.5312Z" fill="#A32C0A"/>
<path d="M197.537 116.76C184.099 113.474 170.323 111.521 156.495 111.073C149.688 110.849 142.719 111.464 135.969 110.458C129 109.401 122.422 106.557 116.787 102.318C116.12 101.818 115.281 102.823 115.953 103.38C121.084 107.224 126.88 110.016 133.183 111.354C140.266 112.859 147.573 112.188 154.709 112.354C169.099 112.745 183.375 114.698 197.37 118.099C198.209 118.323 198.375 116.984 197.537 116.76Z" fill="#A32C0A"/>
<path d="M148.24 111.854C151.641 124.12 162.964 132.542 173.948 137.672C174.729 138.005 175.229 136.839 174.453 136.448C163.745 131.427 152.755 123.286 149.469 111.354C149.245 110.573 148.016 111.073 148.24 111.854Z" fill="#A32C0A"/>
<path d="M92.6981 40.3072C88.1773 46.1093 86.896 53.3593 85.8908 60.4947C84.9429 67.2968 84.2762 74.1562 84.1616 81.0156C83.8856 94.625 85.7814 108.396 91.5783 120.833C91.9168 121.615 93.1981 121.109 92.8075 120.385C87.2293 108.396 85.2762 95.1822 85.4481 82.0781C85.5002 75.3854 86.1148 68.75 87.0054 62.1145C87.9533 54.8072 89.0158 47.1666 93.6981 41.2031C94.2033 40.4739 93.1981 39.6406 92.6981 40.3072Z" fill="#A32C0A"/>
<path d="M102.177 57.5418C97.8804 65.7397 93.0835 74.4376 84.6096 78.8959C83.8856 79.2866 84.3283 80.5157 85.0575 80.1251C93.9221 75.4949 98.8856 66.6303 103.349 58.0991C103.792 57.3178 102.568 56.7605 102.177 57.5418Z" fill="#A32C0A"/>
<path d="M70.2189 58.5417C71.3387 61.948 71.0002 65.5157 71.3908 69.0261C71.7294 72.1511 72.5054 75.1615 73.6252 78.1147C75.9116 83.974 79.646 89.1042 84.4429 93.1199C85.1096 93.6772 85.9481 92.6147 85.2762 92.0574C80.2606 87.8751 76.4689 82.4688 74.3491 76.2761C73.2866 73.2084 72.7294 69.974 72.5054 66.7397C72.3387 63.7865 72.3387 60.8855 71.4481 58.0417C71.2241 57.2605 69.9429 57.7657 70.2189 58.5417Z" fill="#A32C0A"/>
<path d="M48.5259 89.6615C55.9426 103.547 71.5571 110.125 86.7863 106.781C87.6196 106.615 87.453 105.276 86.6144 105.443C72.0051 108.62 56.8905 102.542 49.7551 89.1563C49.3644 88.4324 48.0832 88.9376 48.5259 89.6615Z" fill="#A32C0A"/>
<path d="M60.4635 118.714C65.8176 116.036 69.8333 111.797 72.8437 106.724C73.2864 106 72.0624 105.443 71.6145 106.224C68.828 111.016 64.9791 115.031 59.9583 117.542C59.2343 117.875 59.6822 119.104 60.4635 118.714Z" fill="#A32C0A"/>
<path d="M137.865 156.13C133.24 154.516 129.781 151.167 126.604 147.599C123.536 144.198 120.693 140.573 118.016 136.891C112.495 129.307 107.698 121.224 103.74 112.693C103.401 111.911 102.12 112.411 102.51 113.135C106.635 122.005 111.599 130.422 117.401 138.286C120.245 142.187 123.312 145.927 126.547 149.495C129.615 152.839 132.958 155.854 137.307 157.359C138.146 157.578 138.703 156.411 137.865 156.13Z" fill="#A32C0A"/>
<path d="M111.88 129.531C105.578 134.995 102.401 143.193 103.516 151.448C103.625 152.281 104.964 152.172 104.854 151.281C103.849 143.526 106.75 135.719 112.714 130.536C113.276 130.031 112.495 128.974 111.88 129.531Z" fill="#A32C0A"/>
<path d="M117.849 136.781C123.146 136.615 128.386 137.505 133.292 139.458C134.073 139.792 134.63 138.568 133.797 138.229C128.61 136.167 123.198 135.219 117.677 135.443C116.844 135.5 117.011 136.839 117.849 136.781Z" fill="#A32C0A"/>
<path d="M130.896 110.349C130.786 116.484 135.75 121.724 140.208 125.349C140.88 125.906 141.714 124.849 141.047 124.292C136.865 120.891 132.125 115.979 132.234 110.182C132.234 109.344 130.896 109.51 130.896 110.349Z" fill="#A32C0A"/>
<path d="M44.8645 218.279C52.6301 218.279 59.078 214.638 67.0989 201.909C67.3437 201.498 67.2603 201.164 66.8489 200.92C66.1041 200.508 65.6093 201.498 65.2812 201.909C60.1562 209.435 54.0364 216.378 45.1093 216.295C38.7447 216.211 38.4166 209.597 38.4166 206.873C38.4166 198.19 45.3593 190.914 55.3593 188.107C55.7707 188.602 56.3541 188.935 56.9322 188.935C57.8384 188.935 58.8332 188.107 58.2551 187.279C55.7707 183.727 55.1093 180.086 55.4426 176.784C56.5155 176.701 57.5937 176.701 58.7499 176.701C70.3228 176.701 77.3489 172.237 77.3489 166.368C77.3489 161.159 72.4687 158.93 66.7655 158.93C57.7551 158.93 51.6405 165.956 51.0624 175.295C36.1822 177.196 34.3645 184.633 33.2082 187.279C33.1249 187.529 32.5468 188.852 33.5364 188.852C34.3645 188.852 34.5312 188.107 34.9426 187.279C37.0937 182.982 39.4062 178.435 50.9791 177.112C51.0624 180.586 52.9634 184.388 54.203 186.373C45.1093 187.446 33.453 194.305 33.453 206.873C33.453 215.55 40.4791 218.279 44.8645 218.279ZM55.5259 174.961C56.1874 166.779 61.0624 160.748 67.0989 160.748C70.8176 160.748 74.8697 162.071 74.8697 166.534C74.8697 171.737 68.3384 174.883 58.7499 174.883C57.5937 174.883 56.5155 174.883 55.5259 174.961Z" fill="#A84227"/>
<path d="M66.5163 218.774C67.3444 218.774 68.1725 218.691 68.834 218.441C71.5579 217.534 73.959 214.56 74.8652 210.92C81.1465 210.175 82.7194 208.029 86.6882 201.909C86.9329 201.581 86.7715 201.165 86.4382 200.92C85.86 200.508 85.1986 201.415 84.8652 201.909C80.9017 207.779 78.584 209.019 75.1152 209.435C75.4434 205.961 73.2142 198.191 72.3861 195.133C75.1986 191.498 77.0163 188.935 77.0163 187.034C77.0163 184.8 75.36 183.066 73.2142 183.066C70.0736 183.066 68.0059 186.451 68.0059 190.503C68.0059 191.743 68.5007 195.217 68.834 196.868C67.8392 198.191 66.5996 199.925 65.2767 201.909C64.9486 202.409 64.9486 202.904 65.36 203.149C66.1048 203.566 66.7663 202.409 67.0944 201.909C67.7559 200.836 68.584 199.925 69.2454 199.019C70.1517 201.909 71.1465 206.79 71.0632 209.68C69.9069 209.763 68.584 209.847 67.1777 210.097C64.3704 210.508 62.0527 212.159 62.0527 214.805C62.0527 216.956 63.6257 218.774 66.5163 218.774ZM71.9746 192.899C71.7246 191.659 71.6413 190.586 71.6413 189.597C71.6413 187.446 72.2194 186.123 73.6257 186.123C74.3704 186.123 74.6986 186.784 74.6986 187.696C74.6986 189.263 73.3757 190.915 71.9746 192.899ZM65.61 216.956C64.6986 216.956 63.709 216.378 63.709 214.888C63.709 212.243 66.7663 211.581 70.8132 211.336C70.3184 214.06 68.0892 216.956 65.61 216.956Z" fill="#A84227"/>
<path d="M86.5226 217.862C93.2986 217.862 98.5069 209.185 103.382 201.909C103.632 201.498 103.549 201.164 103.137 200.92C102.554 200.586 101.892 201.414 101.564 201.909C96.4392 209.352 92.3038 216.045 86.5226 216.045C81.6424 216.045 90.4028 197.201 97.2674 184.055H99.9913C100.819 184.055 100.903 183.727 101.069 183.232C101.153 182.899 101.069 182.321 100.653 182.321H98.1736C100.408 178.024 102.392 174.55 103.382 172.732C103.715 172.071 102.887 171.409 102.309 171.159C101.398 170.748 100.408 170.664 99.5799 171.821C99.0017 172.649 96.6059 176.862 93.7101 182.237H90.6528C89.9913 182.237 89.6632 182.237 89.4132 183.066C89.3299 183.394 89.4132 183.972 89.8246 183.972H92.8038C88.3403 192.487 83.1319 203.149 82.3038 208.191C81.2309 214.56 82.6371 217.862 86.5226 217.862Z" fill="#A84227"/>
<path d="M111.979 183.477C113.386 184.222 114.708 183.727 115.37 182.899C116.771 180.831 115.12 178.269 112.886 178.519C110.323 178.769 109.745 182.404 111.979 183.477ZM103.297 217.862C109.333 217.862 114.542 210.258 119.995 201.909C120.245 201.498 120.078 201.003 119.583 200.836C119.089 200.67 118.427 201.498 118.177 201.909C113.386 209.019 108.755 216.045 103.297 216.045C100.156 216.045 102.719 207.612 104.953 202.243C106.276 199.102 111.318 190.336 111.563 189.013C111.729 187.696 110.656 187.362 109.583 187.362C109 187.362 107.761 187.612 107.182 188.435C105.943 190.008 103.547 193.232 99.9949 202.243C97.0991 209.435 97.0158 217.862 103.297 217.862Z" fill="#A84227"/>
<path d="M119.5 217.779C127.104 218.941 134.047 206.29 137.109 201.909C137.437 201.415 137.109 200.92 136.693 200.836C136.198 200.753 135.864 201.086 135.286 201.909C132.562 205.795 125.781 217.201 119.911 215.961C117.349 215.383 120.823 206.706 122.807 201.993C126.031 194.222 127.599 190.836 129.75 187.196C136.609 184.633 144.052 177.029 147.687 170.581C151.323 164.217 150.661 158.847 146.198 158.847C138.677 158.847 122.474 189.347 117.515 201.993C114.87 208.774 114.458 217.04 119.5 217.779ZM130.739 184.8C134.297 177.774 142.812 163.31 146.531 162.566C148.76 162.149 147.771 167.112 145.953 170.086C143.552 173.972 136.609 181.909 130.739 184.8Z" fill="#A84227"/>
<path d="M138.099 217.946C143.057 217.946 146.776 213.816 151.156 207.946C152.312 208.691 154.219 209.102 155.87 209.102C158.266 209.102 162.646 206.951 165.458 201.909C165.708 201.498 165.542 201.165 165.208 200.92C164.714 200.508 164.052 201.331 163.641 201.909C160.828 206.29 157.771 207.118 155.87 207.118C154.875 207.118 153.557 206.873 152.396 206.128C155.62 201.331 159.422 196.456 159.26 189.014C159.177 185.461 156.781 183.477 153.885 183.477C149.01 183.477 144.547 189.758 144.547 195.628C144.547 200.508 146.448 204.639 149.422 206.951C145.786 211.998 141.734 215.961 138.427 215.961C136.281 215.961 135.781 214.31 135.781 212.326C135.781 206.373 141.901 197.529 142.396 196.456C142.807 195.545 143.057 193.977 140.745 193.977C139.422 193.977 138.344 195.133 137.271 196.623C135.37 199.185 133.88 202.409 132.974 205.383C131.156 211.253 132.062 217.946 138.099 217.946ZM150.911 204.805C148.677 202.487 148.099 200.008 148.099 197.696C148.099 192.737 151.49 187.446 154.547 187.446C155.87 187.446 156.531 189.514 156.531 191.248C156.531 195.711 153.719 200.508 150.911 204.805Z" fill="#A84227"/>
<path d="M225.797 158.847C220.011 158.847 209.016 176.946 202.073 190.998C200.006 188.519 198.105 187.112 195.625 187.112C187.938 187.112 178.516 201.415 178.516 210.175C178.516 214.227 180.089 217.618 183.23 217.618C186.698 217.618 193.724 210.753 195.709 206.706C194.881 211.415 194.719 217.862 199.928 217.862C205.214 217.862 209.266 212.904 213.98 206.045C214.886 204.722 215.797 203.316 216.704 201.909C217.037 201.415 216.704 200.92 216.292 200.836C215.959 200.753 215.547 200.92 214.886 201.909C210.011 209.185 205.297 216.045 200.089 216.045C197.61 216.045 198.105 212.076 202.407 201.993C205.631 194.222 207.198 190.836 209.349 187.196C216.209 184.633 223.646 177.029 227.287 170.581C230.922 164.217 230.261 158.847 225.797 158.847ZM225.547 170.086C223.152 173.972 216.209 181.909 210.339 184.8C213.896 177.774 222.407 163.31 226.131 162.566C228.36 162.149 227.37 167.112 225.547 170.086ZM183.724 215.633C182.485 215.633 182.152 214.722 182.152 213.316C182.152 206.373 191.329 190.503 197.443 190.503C199.099 190.503 200.422 191.909 201.084 193.066C200.089 195.133 199.183 197.034 198.438 198.769C195.381 205.467 187.938 215.633 183.724 215.633Z" fill="#A84227"/>
<path d="M220.671 217.862C227.119 217.862 232.494 209.93 237.619 201.909C237.863 201.498 237.947 201.248 237.202 200.836C236.791 200.586 236.129 201.498 235.796 201.909C231.171 208.774 226.541 216.045 220.754 216.045C215.629 216.045 216.702 207.368 219.681 200.508C225.879 200.508 232.494 196.456 232.494 192.159C232.494 188.852 230.343 187.279 227.697 187.279C219.843 187.279 213.15 201.003 213.15 208.357C213.15 216.623 217.202 217.862 220.671 217.862ZM220.587 198.602C222.905 193.149 226.291 190.67 228.442 190.67C229.598 190.67 230.093 191.826 230.093 192.737C230.093 195.795 224.145 198.602 220.587 198.602Z" fill="#A84227"/>
<path d="M277.79 218.029C285.06 218.029 293.409 214.477 301.347 201.909C301.592 201.498 301.508 201.164 301.097 200.92C300.685 200.67 300.269 200.753 299.529 201.909C292.915 212.737 283.987 216.211 278.284 216.211C264.644 216.211 269.107 196.951 275.144 186.534C287.873 188.107 306.967 178.269 306.967 165.956C306.967 161.409 303.826 158.68 299.691 158.68C287.956 158.68 276.133 170.086 270.019 183.149C266.878 181.493 264.894 178.602 264.894 175.128C264.894 173.227 265.472 171.409 266.795 169.92C267.29 169.342 265.717 168.185 264.727 169.508C263.487 171.159 262.993 173.144 262.993 175.128C262.993 179.347 265.472 182.815 269.274 184.8C262.081 200.092 261.336 218.029 277.79 218.029ZM276.05 184.8C282.003 172.732 291.592 161.737 300.769 161.737C303.081 161.737 304.816 163.638 304.816 166.118C304.816 175.623 291.18 184.8 276.05 184.8Z" fill="#A84227"/>
<path d="M318.29 217.862C324.488 217.862 329.863 210.592 335.071 201.909C335.316 201.498 335.149 200.836 334.488 200.836C334.076 200.836 333.498 201.498 333.248 201.909C328.701 209.435 323.993 216.045 318.535 216.045C317.545 216.045 316.717 215.3 316.717 214.06C316.717 211.253 319.035 205.961 320.686 202.159C322.092 198.935 326.472 189.513 326.472 188.685C326.472 187.362 325.644 186.784 324.571 186.784C322.998 186.784 322.754 187.112 320.519 190.998C318.457 188.602 316.634 187.112 314.155 187.112C306.384 187.112 296.962 201.498 296.962 210.175C296.962 214.227 298.535 217.618 301.675 217.618C305.478 217.618 310.769 211.581 313.576 207.612C313.248 209.185 313.082 210.508 313.082 211.748C313.082 215.8 314.899 217.862 318.29 217.862ZM302.17 215.633C300.931 215.633 300.597 214.722 300.597 213.316C300.597 206.373 309.774 190.503 315.894 190.503C317.545 190.503 318.868 191.909 319.53 193.149C318.535 195.3 316.389 199.513 315.394 201.665C313.743 205.795 305.806 215.633 302.17 215.633Z" fill="#A84227"/>
<path d="M328.785 217.862C330.441 217.862 330.602 217.284 330.936 216.956C331.925 215.961 333.248 211.17 334.738 207.946C338.706 199.347 345.894 190.008 349.451 190.008C351.186 190.008 350.607 191.331 348.373 196.373C344.988 204.06 341.269 213.482 340.852 216.706C340.769 217.368 341.514 217.862 342.425 217.862C344.076 217.862 344.326 217.368 344.571 216.956C345.482 215.383 349.618 203.894 351.019 201.581C354.988 195.05 359.946 190.008 362.592 190.008C364.331 190.008 363.748 191.331 361.519 196.373C359.206 201.581 356.477 208.357 356.477 212.987C356.477 216.128 358.623 217.862 361.352 217.862C367.883 217.862 373.175 209.269 378.05 201.909C378.133 201.748 378.3 201.248 377.8 200.92C377.472 200.67 377.061 200.753 376.232 201.909C371.602 208.607 367.139 216.045 361.352 216.045C357.055 216.045 363.748 202.904 366.394 196.373C368.873 190.175 367.055 187.196 363.998 187.196C360.363 187.196 356.227 190.915 354.081 193.894C355.154 189.347 353.498 187.196 350.857 187.196C346.311 187.196 341.514 193.149 339.779 195.961C341.764 191.659 342.425 190.175 342.837 188.519C343.087 187.529 341.93 186.868 341.186 186.868C339.368 186.868 338.785 187.774 338.373 188.519C337.383 190.258 335.727 193.149 333.498 199.185C331.264 205.133 327.628 213.154 327.217 216.706C327.133 217.368 327.878 217.862 328.785 217.862Z" fill="#A84227"/>
<path d="M364.328 237.04C365.151 237.04 366.146 236.545 366.557 235.555C368.542 230.43 369.948 227.04 375.073 214.394C377.224 209.102 379.62 203.81 382.099 198.602C385.984 194.06 391.437 187.774 394.995 187.774C396.068 187.774 396.479 188.685 396.479 190.092C396.479 194.639 393.094 203.727 389.87 209.102C383.917 208.691 377.885 209.102 377.885 214.56C377.885 216.623 379.786 218.029 382.182 218.029C386.646 218.029 390.114 214.972 393.505 210.92C398.135 210.753 401.443 209.352 406.068 201.909C406.318 201.581 406.151 201.165 405.823 200.92C405.406 200.67 404.828 200.92 404.25 201.909C400.12 208.357 397.391 209.019 394.578 209.269C397.641 204.722 400.698 197.446 400.698 192.237C400.698 188.435 398.963 185.711 395.656 185.711C391.937 185.711 387.635 190.175 384.495 193.477C386.729 189.014 387.307 188.107 387.307 187.279C387.307 186.29 386.562 185.711 385.406 185.956C384.495 186.123 383.422 186.29 382.844 187.279C381.849 188.935 381.187 190.336 380.526 191.659C375.651 201.415 366.146 224.477 362.838 235.305C362.51 236.461 363.333 237.04 364.328 237.04ZM382.099 216.295C380.859 216.295 379.703 215.878 379.703 214.394C379.703 210.92 384.911 209.847 388.875 210.675C387.057 213.316 384.25 216.378 382.099 216.295Z" fill="#A84227"/>
<path d="M407.062 217.946C412.021 217.946 415.739 213.816 420.12 207.946C421.276 208.691 423.182 209.102 424.833 209.102C427.229 209.102 431.609 206.951 434.422 201.909C434.672 201.498 434.505 201.165 434.172 200.92C433.677 200.508 433.015 201.331 432.604 201.909C429.791 206.29 426.734 207.118 424.833 207.118C423.838 207.118 422.521 206.873 421.359 206.128C424.583 201.331 428.385 196.456 428.224 189.014C428.14 185.461 425.745 183.477 422.849 183.477C417.974 183.477 413.51 189.758 413.51 195.628C413.51 200.508 415.411 204.639 418.385 206.951C414.75 211.998 410.698 215.961 407.39 215.961C405.245 215.961 404.745 214.31 404.745 212.326C404.745 206.373 410.864 197.529 411.359 196.456C411.771 195.545 412.021 193.977 409.708 193.977C408.385 193.977 407.307 195.133 406.234 196.623C404.333 199.185 402.844 202.409 401.937 205.383C400.12 211.253 401.026 217.946 407.062 217.946ZM419.875 204.805C417.64 202.487 417.062 200.008 417.062 197.696C417.062 192.737 420.453 187.446 423.51 187.446C424.833 187.446 425.495 189.514 425.495 191.248C425.495 195.711 422.682 200.508 419.875 204.805Z" fill="#A84227"/>
<path d="M433.84 218.774C434.669 218.774 435.497 218.691 436.158 218.441C438.882 217.534 441.283 214.56 442.189 210.92C448.471 210.175 450.044 208.029 454.012 201.909C454.257 201.581 454.096 201.165 453.762 200.92C453.184 200.508 452.523 201.415 452.189 201.909C448.226 207.779 445.908 209.019 442.439 209.435C442.768 205.961 440.538 198.191 439.71 195.133C442.523 191.498 444.34 188.935 444.34 187.034C444.34 184.8 442.684 183.066 440.538 183.066C437.398 183.066 435.33 186.451 435.33 190.503C435.33 191.743 435.825 195.217 436.158 196.868C435.163 198.191 433.924 199.925 432.601 201.909C432.273 202.409 432.273 202.904 432.684 203.149C433.429 203.566 434.09 202.409 434.419 201.909C435.08 200.836 435.908 199.925 436.57 199.019C437.476 201.909 438.471 206.79 438.387 209.68C437.231 209.763 435.908 209.847 434.502 210.097C431.695 210.508 429.377 212.159 429.377 214.805C429.377 216.956 430.95 218.774 433.84 218.774ZM439.299 192.899C439.049 191.659 438.965 190.586 438.965 189.597C438.965 187.446 439.544 186.123 440.95 186.123C441.695 186.123 442.023 186.784 442.023 187.696C442.023 189.263 440.7 190.915 439.299 192.899ZM432.934 216.956C432.023 216.956 431.033 216.378 431.033 214.888C431.033 212.243 434.09 211.581 438.137 211.336C437.643 214.06 435.413 216.956 432.934 216.956Z" fill="#A84227"/>
<path d="M170.746 93.4656C177.788 93.4656 185.866 90.0229 193.548 77.8666C193.788 77.4656 193.704 77.1427 193.303 76.9031C192.907 76.6635 192.506 76.7468 191.788 77.8666C185.387 88.3458 176.746 91.7052 171.23 91.7052C158.032 91.7052 162.35 73.0645 168.189 62.9864C180.506 64.5072 198.986 54.9864 198.986 43.0697C198.986 38.6687 195.944 36.0281 191.944 36.0281C180.584 36.0281 169.147 47.0697 163.23 59.7052C160.189 58.1062 158.272 55.3093 158.272 51.95C158.272 50.1062 158.829 48.351 160.111 46.9083C160.59 46.351 159.069 45.2312 158.111 46.5072C156.913 48.1062 156.428 50.0281 156.428 51.95C156.428 56.0281 158.829 59.3875 162.512 61.3093C155.548 76.1062 154.829 93.4656 170.746 93.4656ZM169.069 61.3093C174.829 49.627 184.105 38.9916 192.986 38.9916C195.225 38.9916 196.907 40.8302 196.907 43.2312C196.907 52.4291 183.704 61.3093 169.069 61.3093Z" fill="#A84227"/>
<path d="M187.544 93.3042C189.143 93.3042 189.305 92.7417 189.622 92.424C190.185 91.1427 191.862 86.825 193.305 83.7052C197.221 75.3875 203.7 66.3459 207.138 66.3459C208.82 66.3459 208.263 67.6271 206.102 72.5073C203.862 77.5438 201.143 84.1063 201.143 88.5855C201.143 91.6219 203.06 93.3042 205.94 93.3042C213.378 93.3042 219.779 81.2261 222.258 77.8667C222.341 77.7052 222.497 77.2261 222.018 76.9032C221.7 76.7469 221.299 76.7469 220.497 77.8667C218.102 81.0646 212.497 91.5438 206.102 91.5438C201.94 91.5438 208.263 78.825 210.82 72.5073C213.221 66.5073 211.461 63.6271 208.503 63.6271C204.659 63.6271 200.904 68.1063 198.904 70.9865C200.263 67.8667 201.299 65.6271 202.581 63.3875C209.221 60.825 216.258 53.3094 219.7 46.9865C223.06 40.7521 222.341 35.6323 218.018 35.6323C211.7 35.7886 198.023 60.825 192.102 75.2261C189.7 80.9865 186.503 88.7417 186.023 92.1844C185.945 92.825 186.664 93.3042 187.544 93.3042ZM203.539 61.0646C206.82 54.1896 214.82 40.0282 218.419 39.3094C220.581 38.8302 219.617 43.6271 217.94 46.5073C215.779 50.3511 209.138 58.1063 203.539 61.0646Z" fill="#A84227"/>
<path d="M238.655 93.3042C244.655 93.3042 249.853 86.2625 254.895 77.8667C255.134 77.4657 254.973 76.825 254.332 76.825C253.931 76.825 253.374 77.4657 253.134 77.8667C248.733 85.1427 244.176 91.5438 238.895 91.5438C237.936 91.5438 237.134 90.825 237.134 89.6219C237.134 86.9032 239.374 81.7834 240.973 78.1063C242.332 74.9865 246.572 65.8667 246.572 65.0646C246.572 63.7886 245.775 63.2261 244.733 63.2261C243.212 63.2261 242.973 63.549 240.816 67.3042C238.816 64.9865 237.056 63.549 234.655 63.549C227.134 63.549 218.02 77.4657 218.02 85.8615C218.02 89.7834 219.535 93.0646 222.577 93.0646C226.259 93.0646 231.374 87.2261 234.098 83.3823C233.775 84.9032 233.613 86.1844 233.613 87.3823C233.613 91.3042 235.374 93.3042 238.655 93.3042ZM223.056 91.1427C221.858 91.1427 221.535 90.2625 221.535 88.9032C221.535 82.1844 230.415 66.825 236.337 66.825C237.936 66.825 239.217 68.1844 239.853 69.3875C238.895 71.4657 236.816 75.5438 235.853 77.6271C234.254 81.6271 226.577 91.1427 223.056 91.1427Z" fill="#A84227"/>
<path d="M254.408 93.2207C261.768 94.3405 268.486 82.1061 271.45 77.8665C271.768 77.3874 271.45 76.903 271.049 76.8249C270.57 76.7467 270.247 77.0645 269.69 77.8665C267.049 81.627 260.492 92.6634 254.809 91.4655C252.33 90.903 255.69 82.502 257.611 77.9447C260.731 70.4238 262.252 67.1478 264.33 63.627C270.971 61.1478 278.169 53.7884 281.69 47.5488C285.205 41.3874 284.565 36.1895 280.247 36.1895C272.971 36.1895 257.289 65.7051 252.492 77.9447C249.929 84.502 249.533 92.502 254.408 93.2207ZM265.289 61.3092C268.731 54.5072 276.966 40.5072 280.57 39.7884C282.726 39.3874 281.768 44.1895 280.007 47.0697C277.69 50.8301 270.971 58.5072 265.289 61.3092Z" fill="#A84227"/>
<path d="M285.606 59.3094C287.528 57.7052 288.486 56.6688 289.127 55.95C289.684 55.3094 288.408 53.3875 287.444 54.1063C286.564 54.8302 284.965 56.3458 284.007 58.3458C283.767 58.825 285.127 59.7052 285.606 59.3094ZM275.288 93.3042C281.528 93.3042 286.726 85.6219 291.684 77.8667C291.924 77.4656 292.007 77.2261 291.283 76.825C290.887 76.5854 290.246 77.4656 289.924 77.8667C285.444 84.5021 280.965 91.5438 275.366 91.5438C270.408 91.5438 271.45 83.1427 274.33 76.5073C280.325 76.5073 286.726 72.5854 286.726 68.424C286.726 65.2261 284.647 63.7052 282.085 63.7052C274.486 63.7052 268.007 76.9865 268.007 84.1063C268.007 92.1011 271.929 93.3042 275.288 93.3042ZM275.205 74.6636C277.444 69.3875 280.726 66.9865 282.804 66.9865C283.924 66.9865 284.408 68.1063 284.408 68.9865C284.408 71.9448 278.647 74.6636 275.205 74.6636Z" fill="#A84227"/>
<path d="M291.123 94.1842C291.925 94.1842 292.722 94.1009 293.362 93.8613C296.003 92.9811 298.321 90.1009 299.201 86.5853C305.279 85.8613 306.8 83.7832 310.639 77.8665C310.883 77.5436 310.722 77.1426 310.399 76.903C309.842 76.5072 309.201 77.3874 308.883 77.8665C305.04 83.5436 302.8 84.7415 299.441 85.1426C299.764 81.7832 297.602 74.2676 296.805 71.304C299.524 67.7884 301.284 65.304 301.284 63.4655C301.284 61.3092 299.68 59.627 297.602 59.627C294.566 59.627 292.566 62.9082 292.566 66.8249C292.566 68.028 293.045 71.3874 293.362 72.9863C292.404 74.2676 291.201 75.9447 289.925 77.8665C289.602 78.3457 289.602 78.8249 290.003 79.0645C290.722 79.4655 291.362 78.3457 291.685 77.8665C292.321 76.8249 293.123 75.9447 293.764 75.0645C294.644 77.8665 295.602 82.5853 295.524 85.3822C294.404 85.4655 293.123 85.5436 291.764 85.7832C289.045 86.1842 286.805 87.7832 286.805 90.3457C286.805 92.4238 288.326 94.1842 291.123 94.1842ZM296.404 69.1478C296.165 67.9447 296.081 66.9082 296.081 65.9447C296.081 63.8665 296.644 62.5853 298.003 62.5853C298.722 62.5853 299.045 63.2259 299.045 64.1061C299.045 65.627 297.764 67.2259 296.404 69.1478ZM290.243 92.4238C289.362 92.4238 288.404 91.8613 288.404 90.4238C288.404 87.8613 291.362 87.2259 295.284 86.9863C294.805 89.6217 292.644 92.4238 290.243 92.4238Z" fill="#A84227"/>
</g>
<defs>
<clipPath id="clip0_640_3">
<rect width="459" height="414" fill="white"/>
</clipPath>
</defs>
</svg>
