<svg width="93" height="95" viewBox="0 0 93 95" fill="none" xmlns="http://www.w3.org/2000/svg">
<path d="M93 33.535C93 14.995 78.5682 0 60.7243 0C42.8805 0 28.4487 14.995 28.4487 33.535C28.4487 50.1588 40.0679 63.9082 55.3297 66.5431V85.4186H18.4432V71.0464H23.054V51.8835C23.054 49.2486 20.9792 47.0928 18.4432 47.0928H4.61081C2.07486 47.0928 0 49.2486 0 51.8835V71.0464H4.61081V95H78.3837V85.4186H64.5513V66.8306C80.5508 64.8664 93 50.7337 93 33.535ZM11.527 42.3021C15.354 42.3021 18.4432 39.0923 18.4432 35.116C18.4432 31.1397 15.354 27.9299 11.527 27.9299C7.70005 27.9299 4.61081 31.1397 4.61081 35.116C4.61081 39.0923 7.70005 42.3021 11.527 42.3021Z" fill="#F29D38"/>
</svg>
